HIERARCHY
ROOT Hips
{
	OFFSET 0.000000 0.000000 0.000000
	CHANNELS 6 Xposition Yposition Zposition Zrotation Yrotation Xrotation 
	JOINT LHipJoint
	{
		OFFSET 0.000000 0.000000 0.000000
		CHANNELS 3 Zrotation Yrotation Xrotation
		JOINT LeftUpLeg
		{
			OFFSET 1.363060 -1.794630 0.839290
			CHANNELS 3 Zrotation Yrotation Xrotation
			JOINT LeftLeg
			{
				OFFSET 2.448110 -6.726130 0.000000
				CHANNELS 3 Zrotation Yrotation Xrotation
				JOINT LeftFoot
				{
					OFFSET 2.562200 -7.039590 0.000000
					CHANNELS 3 Zrotation Yrotation Xrotation
					JOINT LeftToeBase
					{
						OFFSET 0.157640 -0.433110 2.322550
						CHANNELS 3 Zrotation Yrotation Xrotation
						End Site
						{
							OFFSET 0.000000 0.000000 0.000000
						}
					}
				}
			}
		}
	}
	JOINT RHipJoint
	{
		OFFSET 0.000000 0.000000 0.000000
		CHANNELS 3 Zrotation Yrotation Xrotation
		JOINT RightUpLeg
		{
			OFFSET -1.305520 -1.794630 0.839290
			CHANNELS 3 Zrotation Yrotation Xrotation
			JOINT RightLeg
			{
				OFFSET -2.542530 -6.985550 0.000000
				CHANNELS 3 Zrotation Yrotation Xrotation
				JOINT RightFoot
				{
					OFFSET -2.568260 -7.056230 0.000000
					CHANNELS 3 Zrotation Yrotation Xrotation
					JOINT RightToeBase
					{
						OFFSET -0.164730 -0.452590 2.363150
						CHANNELS 3 Zrotation Yrotation Xrotation
						End Site
						{
							OFFSET 0.000000 0.000000 0.000000
						}
					}
				}
			}
		}
	}
	JOINT LowerBack
	{
		OFFSET 0.000000 0.000000 0.000000
		CHANNELS 3 Zrotation Yrotation Xrotation
		JOINT Spine
		{
			OFFSET 0.028270 2.035590 -0.193380
			CHANNELS 3 Zrotation Yrotation Xrotation
			JOINT Spine1
			{
				OFFSET 0.056720 2.048850 -0.042750
				CHANNELS 3 Zrotation Yrotation Xrotation
				JOINT Neck
				{
					OFFSET 0.000000 0.000000 0.000000
					CHANNELS 3 Zrotation Yrotation Xrotation
					JOINT Neck1
					{
						OFFSET -0.054170 1.746240 0.172020
						CHANNELS 3 Zrotation Yrotation Xrotation
						JOINT Head
						{
							OFFSET 0.104070 1.761360 -0.123970
							CHANNELS 3 Zrotation Yrotation Xrotation
							End Site
							{
								OFFSET 0.000000 0.000000 0.000000
							}
						}
					}
				}
				JOINT LeftShoulder
				{
					OFFSET 0.000000 0.000000 0.000000
					CHANNELS 3 Zrotation Yrotation Xrotation
					JOINT LeftArm
					{
						OFFSET 3.362410 1.200890 -0.311210
						CHANNELS 3 Zrotation Yrotation Xrotation
						JOINT LeftForeArm
						{
							OFFSET 4.983000 -0.000000 -0.000000
							CHANNELS 3 Zrotation Yrotation Xrotation
							JOINT LeftHand
							{
								OFFSET 3.483560 -0.000000 -0.000000
								CHANNELS 3 Zrotation Yrotation Xrotation
								JOINT LeftFingerBase
								{
									OFFSET 0.000000 0.000000 0.000000
									CHANNELS 3 Zrotation Yrotation Xrotation
									JOINT LeftHandIndex1
									{
										OFFSET 0.715260 -0.000000 -0.000000
										CHANNELS 3 Zrotation Yrotation Xrotation
										End Site
										{
											OFFSET 0.000000 0.000000 0.000000
										}
									}
								}
								JOINT LThumb
								{
									OFFSET 0.000000 0.000000 0.000000
									CHANNELS 3 Zrotation Yrotation Xrotation
									End Site
									{
										OFFSET 0.000000 0.000000 0.000000
									}
								}
							}
						}
					}
				}
				JOINT RightShoulder
				{
					OFFSET 0.000000 0.000000 0.000000
					CHANNELS 3 Zrotation Yrotation Xrotation
					JOINT RightArm
					{
						OFFSET -3.136600 1.374050 -0.404650
						CHANNELS 3 Zrotation Yrotation Xrotation
						JOINT RightForeArm
						{
							OFFSET -5.241900 -0.000000 -0.000000
							CHANNELS 3 Zrotation Yrotation Xrotation
							JOINT RightHand
							{
								OFFSET -3.444170 -0.000000 -0.000000
								CHANNELS 3 Zrotation Yrotation Xrotation
								JOINT RightFingerBase
								{
									OFFSET 0.000000 0.000000 0.000000
									CHANNELS 3 Zrotation Yrotation Xrotation
									JOINT RightHandIndex1
									{
										OFFSET -0.622530 -0.000000 -0.000000
										CHANNELS 3 Zrotation Yrotation Xrotation
										End Site
										{
											OFFSET 0.000000 0.000000 0.000000
										}
									}
								}
								JOINT RThumb
								{
									OFFSET 0.000000 0.000000 0.000000
									CHANNELS 3 Zrotation Yrotation Xrotation
									End Site
									{
										OFFSET 0.000000 0.000000 0.000000
									}
								}
							}
						}
					}
				}
			}
		}
	}
}
MOTION
Frames: 9
Frame Time: 0.008333
4.717181 17.946219 -0.823841 -6.719042 -4.604870 3.419541 -0.009188 4.018278 2.443301 -8.843336 -8.401475 -33.076551 1.933453 11.122541 32.735747 -0.917709 5.612782 9.250664 0.001300 0.234600 0.644500 1.921097 -5.021623 5.217104 29.449108 12.229497 -3.490524 -1.103838 -5.903664 24.512086 1.229535 -5.461047 -5.242080 -0.306500 -3.559200 9.839700 5.251309 1.213340 7.492612 4.963465 2.376950 3.974964 -1.552877 1.010049 -9.382170 -5.265717 -4.703177 -16.819625 4.261689 -5.415058 14.566395 -0.020900 -2.282300 8.051700 -7.126053 2.917190 -1.299166 -81.484528 4.894254 24.332535 13.672988 -22.952870 -2.876784 -0.365782 -0.697401 -6.147981 28.258413 18.668410 10.270700 -7.125000 0.000000 0.000000 0.420000 51.774700 0.070100 11.001737 -1.766857 -2.352168 72.267289 6.190894 22.461076 -14.021191 27.170099 -3.930718 1.036375 -0.290073 -0.865018 -19.940834 23.950915 -8.898100 7.125000 0.000000 0.000000 5.128700 -4.460900 4.733600
4.718421 17.945486 -0.725113 -6.750867 -4.826069 3.517761 -0.087520 3.984220 2.399000 -8.616227 -8.390507 -33.027448 1.561102 10.656903 31.125591 -0.977656 5.977807 9.687392 0.001921 -0.075787 -0.208203 1.950705 -5.035945 5.262423 29.381994 12.192184 -3.047148 -1.032066 -5.778017 24.135738 1.213657 -5.376022 -5.044663 -0.363663 -3.864051 10.695736 5.299068 1.322752 7.442093 4.888762 2.520256 3.953683 -1.636457 1.080801 -9.352765 -5.233264 -4.717745 -16.887574 4.266084 -5.436071 14.709864 -0.027057 -2.284108 8.104570 -7.124195 2.927492 -1.299444 -81.472969 4.992970 24.248905 13.584591 -22.823959 -2.843672 -0.374234 -0.681449 -6.275509 28.445563 17.733576 9.866208 -7.125000 0.000000 0.000000 0.778513 50.754913 0.103483 10.998829 -1.756967 -2.346659 72.274956 6.263461 22.498067 -14.120118 27.299656 -3.979266 1.036004 -0.280514 -0.842661 -20.080122 23.772200 -8.896462 7.125000 0.000000 0.000000 5.024202 -4.633463 4.620347
4.720178 17.942580 -0.625674 -6.810820 -5.028196 3.628684 -0.164419 3.949502 2.352968 -8.350472 -8.408460 -32.967705 1.191395 10.181239 29.496192 -1.036380 6.343427 10.135970 0.003982 -0.375110 -1.030619 1.980688 -5.047744 5.307436 29.337227 12.125026 -2.624801 -0.961457 -5.652108 23.762013 1.188079 -5.259754 -4.824185 -0.436949 -4.227634 11.720222 5.363010 1.421881 7.372407 4.845176 2.651541 3.929042 -1.708013 1.145737 -9.315793 -5.234109 -4.731503 -16.976230 4.285220 -5.446815 14.871052 -0.022798 -2.280831 8.167208 -7.123671 2.939345 -1.299876 -81.490210 5.100692 24.145444 13.516172 -22.723425 -2.818323 -0.381589 -0.667311 -6.377880 28.603272 16.911661 9.506388 -7.125000 0.000000 0.000000 1.083845 49.856260 0.129213 10.995424 -1.744854 -2.339789 72.257778 6.346691 22.534733 -14.204025 27.409062 -4.020352 1.036248 -0.271456 -0.806706 -20.231522 23.593866 -8.900349 7.125000 0.000000 0.000000 4.911779 -4.803470 4.500323
4.723672 17.932380 -0.523847 -6.965137 -5.166341 3.782226 -0.236514 3.912568 2.301129 -7.955068 -8.523439 -32.872268 0.830560 9.671941 27.802236 -1.091004 6.711044 10.624298 0.010874 -0.637315 -1.751429 2.011926 -5.051078 5.351425 29.367429 11.957743 -2.273002 -0.894752 -5.525320 23.397089 1.129961 -5.038673 -4.526345 -0.564323 -4.788251 13.309833 5.481238 1.486509 7.238420 4.905985 2.742502 3.893134 -1.739235 1.191160 -9.253430 -5.346661 -4.742544 -17.134355 4.353808 -5.423109 15.091685 0.016403 -2.260496 8.262611 -7.127620 2.956401 -1.300824 -81.604069 5.238625 23.975455 13.514777 -22.718096 -2.819017 -0.385264 -0.659260 -6.395856 28.662212 16.468571 9.296432 -7.125000 0.000000 0.000000 1.210768 49.363990 0.129269 10.990353 -1.725281 -2.328351 72.157250 6.465689 22.570310 -14.237539 27.450864 -4.036405 1.038550 -0.264078 -0.725137 -20.423552 23.416813 -8.922774 7.125000 0.000000 0.000000 4.772769 -4.964905 4.357585
4.726881 17.925338 -0.422926 -7.095003 -5.252746 3.905425 -0.317306 3.881524 2.255371 -7.573974 -8.690963 -32.700374 0.480955 9.140195 26.095911 -1.149253 7.067412 11.030031 0.016727 -0.829945 -2.281050 2.045815 -5.054706 5.397134 29.387113 11.713798 -1.967436 -0.830060 -5.401582 23.036777 1.109196 -4.933092 -4.259466 -0.589800 -4.906360 13.643723 5.558778 1.529307 7.134963 4.973589 2.800193 3.882970 -1.737120 1.223225 -9.198797 -5.439123 -4.752944 -17.303498 4.388271 -5.397927 15.260841 0.042529 -2.243767 8.343540 -7.133279 2.970388 -1.303548 -81.727630 5.343223 23.787362 13.555757 -22.778242 -2.832876 -0.381752 -0.672892 -6.225799 28.585189 17.252851 9.664425 -7.125000 0.000000 0.000000 0.980166 50.231440 0.102554 10.984774 -1.707436 -2.317141 72.049582 6.634500 22.628702 -14.274953 27.498275 -4.055551 1.038278 -0.257406 -0.697149 -20.510275 23.262281 -8.905171 7.125000 0.000000 0.000000 4.703281 -5.118454 4.279674
4.729755 17.922013 -0.323072 -7.196080 -5.278232 3.992897 -0.408338 3.857413 2.216773 -7.209730 -8.920356 -32.438459 0.144574 8.582016 24.375022 -1.211772 7.410535 11.338516 0.021359 -0.940656 -2.585563 2.082825 -5.058681 5.444868 29.394415 11.379588 -1.716305 -0.767737 -5.281433 22.681896 1.132412 -4.963502 -4.029041 -0.495300 -4.503450 12.499104 5.588411 1.546402 7.067452 5.049194 2.818712 3.903118 -1.695753 1.239563 -9.153266 -5.507928 -4.762589 -17.485616 4.382553 -5.371007 15.369386 0.053261 -2.231284 8.407425 -7.140952 2.980763 -1.308362 -81.862613 5.408572 23.577952 13.646630 -22.915480 -2.862233 -0.369778 -0.712053 -5.834347 28.348080 19.482257 10.712906 -7.125000 0.000000 0.000000 0.328607 52.699850 0.044318 10.978596 -1.691625 -2.306200 71.933507 6.861961 22.713956 -14.316958 27.552290 -4.078338 1.034976 -0.251565 -0.732249 -20.473008 23.134267 -8.840439 7.125000 0.000000 0.000000 4.715651 -5.262718 4.278092
4.731775 17.920707 -0.219917 -7.287286 -5.327352 4.052170 -0.506788 3.848641 2.183102 -6.785278 -9.307341 -32.071586 -0.153076 8.021154 22.693430 -1.357206 7.974497 11.403196 0.014512 -0.694193 -1.908050 2.116369 -5.067646 5.491458 29.425458 11.087571 -1.433334 -0.713374 -5.172371 22.359331 1.195373 -5.122544 -3.882896 -0.356207 -3.749591 10.382693 5.664979 1.585765 7.006133 5.054617 2.871940 3.928795 -1.727737 1.268765 -9.098280 -5.479315 -4.767846 -17.591900 4.342505 -5.368239 15.393490 0.036054 -2.231058 8.431580 -7.146278 2.983891 -1.313792 -81.906546 5.421644 23.338600 13.712282 -23.019866 -2.878590 -0.354837 -0.767827 -5.137713 27.902621 22.656800 12.025756 -7.125000 0.000000 0.000000 -1.082010 56.110556 -0.415569 10.971875 -1.683542 -2.301279 71.911843 7.019842 22.786954 -14.446830 27.722492 -4.146940 1.028195 -0.237010 -0.823146 -20.407513 22.855840 -8.706715 7.125000 0.000000 0.000000 4.733353 -5.575666 4.265810
4.733409 17.920313 -0.115273 -7.374036 -5.387145 4.098710 -0.608587 3.846796 2.151656 -6.333636 -9.765497 -31.657313 -0.433235 7.459079 21.029586 -1.540086 8.638192 11.357771 0.002480 -0.286426 -0.787041 2.148347 -5.078863 5.537530 29.467222 10.814609 -1.135984 -0.662605 -5.068317 22.051359 1.276282 -5.339679 -3.774813 -0.196974 -2.837240 7.827408 5.762744 1.635184 6.947612 5.028345 2.940843 3.956970 -1.792849 1.303775 -9.039024 -5.406707 -4.771122 -17.663935 4.286952 -5.376378 15.379459 0.006230 -2.236367 8.437794 -7.150543 2.983748 -1.319500 -81.909360 5.411106 23.085726 13.766545 -23.109416 -2.889075 -0.338556 -0.831103 -4.303254 27.363069 26.258179 13.457999 -7.125000 0.000000 0.000000 -2.835429 59.946816 -1.056848 10.964908 -1.678949 -2.299077 71.932815 7.146301 22.854415 -14.616382 27.945166 -4.236232 1.019842 -0.218519 -0.939241 -20.329268 22.509485 -8.541835 7.125000 0.000000 0.000000 4.753462 -5.964793 4.248695
4.737424 17.916709 -0.008661 -7.504469 -5.493439 4.185654 -0.699047 3.857251 2.111074 -5.701196 -10.506294 -31.191478 -0.658008 6.918536 19.457079 -1.826720 9.535116 10.947027 0.002071 0.049796 0.136760 2.170562 -5.093771 5.579223 29.528441 10.650879 -0.801272 -0.623938 -4.986403 21.818238 1.295764 -5.396274 -3.801288 -0.142753 -2.410771 6.643387 5.959237 1.703716 6.889396 4.967736 3.051725 3.901309 -1.940119 1.347729 -9.018387 -5.325820 -4.784190 -17.685508 4.264161 -5.410234 15.449336 -0.017368 -2.246710 8.460817 -7.144639 2.988802 -1.313628 -81.825477 5.533566 23.154386 13.508044 -22.725325 -2.794694 -0.354696 -0.772202 -4.859621 27.691901 22.988769 12.077205 -7.125000 0.000000 0.000000 -1.440752 56.426036 -0.535172 10.956562 -1.679813 -2.304242 72.007994 7.048426 22.873954 -14.840455 28.243107 -4.357242 1.008734 -0.194199 -0.993541 -20.226795 22.028171 -8.317289 7.125000 0.000000 0.000000 4.779848 -6.505263 4.222241
